<?xml version="1.0" standalone="no"?>
<!DOCTYPE svg PUBLIC "-//W3C//DTD SVG 20010904//EN"
 "http://www.w3.org/TR/2001/REC-SVG-20010904/DTD/svg10.dtd">
<svg version="1.0" xmlns="http://www.w3.org/2000/svg"
 width="1582.000000pt" height="2048.000000pt" viewBox="0 0 1582.000000 2048.000000"
 preserveAspectRatio="xMidYMid meet">
<metadata>
Created by potrace 1.15, written by Peter Selinger 2001-2017
</metadata>
<g transform="translate(0.000000,2048.000000) scale(0.100000,-0.100000)"
fill="#000000" stroke="none">
<path d="M2306 20027 c-20 -47 -34 -143 -29 -205 4 -39 10 -52 39 -77 37 -33
84 -93 84 -109 0 -6 -19 8 -42 31 -24 22 -74 60 -113 84 -96 59 -149 103 -176
145 -16 27 -24 32 -30 22 -13 -19 -10 -78 6 -121 13 -38 13 -39 -8 -33 -12 4
-53 9 -91 13 l-68 6 52 -52 c43 -44 51 -56 48 -83 -3 -30 -11 -37 -98 -83
-112 -58 -170 -94 -170 -103 0 -4 23 -5 52 -3 74 5 124 -13 144 -51 14 -26 14
-40 5 -86 -6 -31 -11 -59 -11 -63 0 -4 35 17 78 46 44 28 109 63 146 76 l67
24 -53 15 -52 16 51 31 c61 37 103 50 198 58 51 5 66 4 55 -4 -8 -6 -24 -11
-35 -11 -26 0 -145 -42 -145 -51 0 -4 23 -13 52 -20 l52 -12 -24 -16 c-45 -29
-101 -84 -116 -114 -15 -28 -15 -29 8 -22 13 4 31 9 41 12 39 11 108 -8 142
-39 19 -16 35 -34 35 -39 0 -5 -120 -9 -275 -9 l-275 0 -10 26 c-15 37 -12
105 5 138 8 15 15 32 15 36 0 19 -75 32 -147 26 -71 -6 -73 -5 -63 14 22 40
79 88 141 116 125 57 144 69 147 96 4 30 -33 77 -84 109 -22 13 -32 25 -26 31
9 9 156 13 170 4 4 -2 7 26 7 63 0 48 5 75 18 95 l19 28 34 -54 c24 -39 53
-68 104 -101 l70 -47 0 80 0 80 -37 24 c-80 53 -238 70 -371 42 -74 -16 -82
-21 -47 -30 46 -12 27 -32 -52 -55 -150 -44 -265 -120 -320 -213 -18 -29 -35
-61 -39 -71 -6 -17 -5 -18 14 -6 39 24 36 0 -11 -99 -59 -123 -79 -204 -76
-301 2 -63 0 -77 -14 -79 -11 -2 -19 6 -23 23 -6 25 -37 45 -68 45 -8 0 -19
-20 -26 -45 -9 -33 -18 -45 -31 -45 -22 0 -22 -1 -8 56 6 24 15 44 20 44 16 0
10 15 -11 28 -17 10 -26 10 -50 -3 -47 -24 -53 -47 -47 -162 3 -60 1 -103 -4
-103 -16 0 -28 46 -30 114 -2 67 -10 77 -39 51 -13 -12 -15 -27 -9 -92 7 -67
12 -81 34 -101 32 -27 31 -27 -100 -42 -55 -6 -108 -13 -117 -16 -17 -5 -18
-38 -18 -505 0 -274 3 -499 8 -499 4 0 59 7 122 16 63 8 201 26 305 40 105 14
242 31 305 40 63 8 136 17 162 21 l47 6 3 81 3 81 110 6 c334 19 1009 -1 1700
-51 544 -39 834 -60 920 -65 55 -3 169 -11 254 -17 l153 -10 64 -68 c101 -106
205 -151 303 -129 47 11 160 74 248 140 l52 39 205 0 c236 0 661 26 753 45 13
3 40 -8 73 -30 29 -19 53 -35 55 -35 2 0 -1 16 -7 36 -11 42 -11 42 30 50 l32
7 0 -249 1 -249 28 57 c15 31 32 63 38 70 6 7 13 29 15 48 4 48 33 50 93 8
l47 -33 326 0 c274 0 339 3 403 17 191 44 133 43 3179 43 2712 0 2913 -1 3030
-17 69 -10 152 -25 183 -33 45 -12 122 -15 345 -15 303 0 344 5 399 46 17 13
43 24 57 24 23 0 26 -4 26 -38 0 -21 5 -43 11 -49 6 -6 24 -37 40 -70 l28 -58
1 226 0 226 152 5 c161 6 210 17 255 60 l23 21 0 504 c0 277 -1 503 -3 503 -2
0 -30 -11 -63 -24 -68 -28 -183 -46 -290 -46 l-74 0 0 273 -1 272 -28 -58
c-16 -33 -34 -64 -40 -70 -6 -6 -11 -28 -11 -49 0 -34 -3 -38 -25 -38 -13 0
-41 11 -61 25 -20 14 -53 29 -73 35 -20 5 -161 10 -323 10 -224 0 -300 -3
-345 -15 -32 -9 -112 -23 -178 -33 -112 -16 -322 -17 -3025 -17 -3054 0 -3013
-1 -3195 43 -58 14 -125 17 -397 17 l-326 0 -47 -33 c-60 -42 -89 -40 -93 8
-2 19 -11 46 -21 60 -9 14 -26 45 -37 70 l-19 44 -5 -259 -5 -260 -85 -12
c-347 -49 -803 -68 -1277 -54 -394 13 -676 29 -1343 76 -267 19 -559 39 -650
45 -91 5 -213 13 -272 16 -60 4 -108 8 -108 8 0 1 9 27 20 59 11 31 20 73 20
93 l0 36 -31 -31 c-31 -32 -49 -39 -49 -21 0 6 -11 21 -24 34 -17 18 -24 39
-28 83 -8 86 -37 134 -158 258 -133 136 -185 209 -202 283 l-12 56 -13 -30
c-6 -16 -12 -58 -13 -93 l0 -64 94 -92 c80 -79 126 -135 160 -193 4 -7 -57 53
-136 133 -158 162 -206 229 -224 313 l-12 57 -16 -38z m12584 -1414 c-1 -579
-4 -872 -10 -861 -11 18 -15 1694 -4 1722 3 9 8 16 10 16 2 0 4 -395 4 -877z
m-8170 2 c0 -558 -3 -856 -10 -860 -7 -4 -10 285 -10 860 0 575 3 864 10 860
7 -4 10 -302 10 -860z m870 813 c43 -15 26 -16 -339 -17 -282 -1 -382 2 -374
10 23 23 87 27 373 25 241 -2 303 -5 340 -18z m7086 11 c24 -6 44 -15 44 -20
0 -5 -170 -9 -387 -8 l-388 1 65 18 c55 15 108 18 343 19 175 1 295 -3 323
-10z m-7141 -82 c99 -15 421 -16 3260 -16 2839 0 3161 1 3260 16 74 11 208 17
413 20 l303 4 27 -58 27 -58 0 -655 0 -655 -28 -53 -28 -53 -307 4 c-209 3
-342 9 -417 20 -99 15 -421 16 -3251 17 -3094 0 -3144 0 -3293 -20 -125 -17
-196 -20 -418 -18 l-267 3 -23 47 c-13 26 -28 70 -33 99 -14 75 -13 1163 1
1231 6 29 22 75 36 101 l24 48 302 -4 c204 -3 338 -9 412 -20z m6495 13 c-73
-10 -6400 -11 -6465 0 -27 4 1428 7 3235 7 1807 0 3260 -3 3230 -7z m-11372
-26 c26 -18 27 -29 7 -68 -8 -15 -15 -30 -15 -32 0 -2 19 -4 43 -4 42 0 135
-35 124 -46 -3 -4 -85 -3 -181 1 -197 8 -193 6 -161 82 18 43 10 53 -44 53
-22 0 -31 4 -25 9 24 24 220 28 252 5z m-253 -184 c3 -6 4 -18 0 -29 -5 -17
-28 -18 -373 -24 -319 -6 -617 -22 -759 -43 -45 -7 -49 -4 -33 26 12 23 27 26
221 45 280 29 931 46 944 25z m425 -21 c20 -31 0 -35 -153 -31 -84 2 -157 5
-164 7 -6 2 -9 13 -6 26 6 22 7 22 161 16 107 -4 157 -9 162 -18z m385 -9
c171 -10 437 -28 735 -50 164 -12 528 -36 745 -49 800 -49 1514 -36 1943 35
32 5 33 4 30 -23 -3 -26 -8 -29 -63 -40 -215 -44 -754 -67 -1270 -53 -515 14
-822 32 -1460 85 -349 29 -681 52 -880 61 l-146 7 23 24 c21 23 28 24 93 19
39 -4 151 -11 250 -16z m-825 -40 c0 -4 -10 -20 -22 -35 l-22 -28 42 7 c51 8
53 -2 10 -45 l-33 -32 44 7 c50 8 86 25 130 62 37 31 39 44 7 44 -14 0 -28 5
-32 12 -16 25 659 -7 1376 -67 1233 -102 2162 -116 2664 -40 55 8 103 15 108
15 4 0 8 -175 8 -389 0 -335 -2 -390 -15 -395 -8 -3 -36 -8 -63 -12 -47 -6
-49 -5 -81 32 -57 67 -112 103 -198 130 -87 28 -104 47 -57 64 14 6 29 8 34 5
5 -3 11 -1 14 4 10 16 -65 23 -174 16 -122 -8 -144 1 -85 36 20 12 34 23 32
25 -2 2 -41 -3 -87 -12 -87 -16 -181 -53 -246 -98 -42 -28 -38 -32 16 -16 90
26 304 6 406 -40 64 -28 52 -33 -21 -8 -87 29 -228 35 -356 13 -126 -20 -319
-88 -449 -157 l-95 -50 -205 6 c-320 10 -736 38 -1300 86 -673 58 -1305 79
-1800 61 -290 -11 -660 -39 -787 -59 -29 -5 -53 -9 -53 -8 0 5 -1 674 0 713 0
52 0 52 26 43 25 -10 25 -9 19 20 -6 27 -4 30 19 30 13 0 28 -5 32 -12 5 -8
10 -6 19 5 13 18 86 28 325 47 268 21 850 35 850 20z m12930 -14 c0 -17 -9
-28 -32 -39 -42 -19 -178 -37 -285 -37 -82 0 -84 1 -81 23 3 21 8 22 138 28
97 5 151 12 190 26 72 27 70 27 70 -1z m-17 -849 c-26 -42 -96 -67 -213 -74
-53 -3 -113 -3 -133 1 l-37 7 0 409 0 410 68 0 c93 0 241 17 288 32 l39 13 3
-384 c2 -351 1 -386 -15 -414z m-14243 250 l0 -363 133 -19 c72 -10 128 -20
122 -21 -11 -4 -495 -74 -508 -74 -4 0 -6 183 -5 408 l3 407 90 11 c50 6 107
12 128 13 l37 1 0 -363z m1970 -217 c251 -13 452 -27 725 -50 357 -30 739 -58
975 -70 118 -6 274 -14 345 -18 l130 -7 -55 -19 c-48 -17 -73 -18 -210 -13
-180 8 -399 21 -695 41 -115 8 -343 24 -505 35 -530 37 -582 41 -805 53 -125
8 -438 13 -725 13 -519 -1 -690 -10 -970 -51 -149 -22 -142 -22 -146 3 -2 14
2 24 14 27 59 19 440 52 807 70 128 6 927 -3 1115 -14z m3097 5 c48 -14 156
-96 143 -108 -6 -6 -405 -27 -513 -27 -42 0 -77 4 -77 8 0 12 184 99 257 122
72 23 124 25 190 5z m9193 -83 c0 -11 -8 -26 -18 -35 -37 -34 -88 -45 -234
-52 l-148 -7 0 23 c0 24 0 24 123 24 128 1 222 20 247 50 17 20 30 19 30 -3z
m-13630 -63 l0 -61 -27 5 c-16 3 -113 17 -218 32 -189 27 -259 42 -205 45 14
1 97 10 185 20 88 10 184 18 213 19 l52 1 0 -61z m4716 -7 c19 -11 -30 -17
-241 -32 -105 -7 -489 -14 -579 -10 -5 0 2 9 16 20 23 17 52 20 338 30 173 6
315 12 317 14 6 5 134 -13 149 -22z m-4864 -70 c4 -4 -36 -14 -89 -20 -86 -10
-450 -57 -600 -78 -50 -6 -53 -5 -53 15 0 11 3 21 8 21 4 1 124 18 267 40 210
32 279 38 359 35 55 -2 103 -8 108 -13z m12473 -182 c28 -4 -1424 -7 -3225 -7
-1801 0 -3252 3 -3225 7 70 10 6389 10 6450 0z m-6440 -61 c-60 -16 -107 -19
-343 -19 -260 0 -362 9 -362 31 0 5 170 9 388 8 l387 -1 -70 -19z m7145 11 c0
-22 -88 -30 -360 -30 -248 0 -294 3 -355 19 l-70 19 393 1 c242 1 392 -3 392
-9z"/>
<path d="M4693 19725 c-27 -19 -38 -62 -21 -83 10 -12 10 -16 0 -19 -6 -3 -9
-10 -6 -15 4 -6 -1 -17 -11 -24 -16 -12 -17 -14 -2 -20 9 -3 14 -10 11 -15 -9
-15 13 -10 30 6 19 19 30 19 23 1 -4 -9 1 -16 11 -18 9 -2 17 -11 17 -21 0 -9
5 -16 10 -14 6 1 9 12 7 24 -1 12 2 24 7 28 6 3 7 13 4 22 -4 11 -3 14 6 9 7
-5 10 -14 7 -21 -2 -7 4 -21 15 -31 17 -15 22 -16 29 -5 4 8 4 19 -1 25 -5 6
-23 29 -40 51 -17 22 -35 40 -39 40 -17 0 -33 24 -27 39 4 9 15 16 26 16 20 0
33 -22 25 -43 -2 -7 4 -21 15 -31 20 -18 21 -18 31 8 21 56 -15 106 -75 106
-17 0 -40 -7 -52 -15z"/>
<path d="M2900 19622 c16 -19 20 -40 20 -98 0 -49 -4 -74 -12 -77 -29 -10 1
-13 73 -8 88 7 115 24 125 78 8 43 -11 90 -45 107 -14 7 -61 16 -103 18 l-77
5 19 -25z"/>
<path d="M4427 19638 c-27 -10 -42 -40 -35 -75 1 -10 22 -27 46 -38 43 -20 56
-45 24 -45 -10 0 -27 7 -38 15 -28 22 -34 18 -34 -20 0 -31 3 -35 35 -41 67
-12 115 15 115 65 0 31 -25 59 -64 69 -14 4 -25 12 -23 17 2 11 22 12 55 1 19
-6 22 -4 22 19 0 14 -6 27 -12 29 -37 12 -66 13 -91 4z"/>
<path d="M5061 19628 c5 -9 14 -20 19 -23 15 -9 13 -155 -2 -155 -6 0 -8 -3
-5 -7 12 -12 141 -2 164 13 12 7 27 31 34 53 9 32 9 44 -6 74 -20 43 -48 55
-142 59 -65 3 -71 2 -62 -14z"/>
<path d="M6361 19637 c-52 -26 -54 -83 -4 -106 53 -25 57 -27 61 -39 6 -20
-38 -14 -71 10 l-30 22 6 -39 c7 -43 20 -55 59 -55 64 0 106 38 93 87 -4 17
-20 31 -50 44 -70 31 -53 51 19 23 13 -5 16 1 16 25 0 26 -4 31 -24 31 -13 0
-30 2 -38 5 -7 3 -24 -1 -37 -8z"/>
<path d="M3118 19628 c7 -7 12 -40 12 -79 0 -82 17 -108 76 -116 33 -4 45 -1
70 20 26 23 30 33 34 99 4 56 8 73 20 73 22 0 27 -144 7 -184 -1 -2 17 -4 41
-5 23 -1 42 1 42 6 0 4 -4 8 -10 8 -5 0 -10 20 -10 45 0 25 4 45 8 45 4 0 30
-22 57 -50 27 -27 53 -50 57 -50 4 0 8 42 8 94 0 66 4 96 13 99 6 3 -13 5 -43
5 -30 0 -49 -2 -42 -5 11 -4 18 -63 8 -63 -2 0 -21 16 -40 35 -35 33 -40 35
-106 35 l-70 0 0 -74 c0 -66 -2 -75 -20 -81 -33 -11 -40 3 -40 81 l0 74 -42 0
c-33 0 -39 -3 -30 -12z"/>
<path d="M3603 19630 c-74 -30 -72 -162 3 -190 29 -11 78 -13 112 -4 19 6 22
13 22 60 l0 54 -40 0 c-22 0 -40 -4 -40 -10 0 -5 5 -10 10 -10 6 0 10 -11 10
-25 0 -20 -5 -25 -24 -25 -29 0 -48 22 -48 55 0 14 5 32 12 40 14 17 75 20 85
5 12 -20 26 -9 21 18 -2 15 -5 30 -5 35 -1 10 -91 8 -118 -3z"/>
<path d="M3770 19621 c14 -27 13 -154 -2 -169 -9 -9 6 -12 70 -12 64 0 82 3
82 14 0 8 2 21 5 29 5 11 -2 13 -40 7 -46 -7 -62 0 -49 21 3 6 19 9 35 5 27
-5 29 -3 29 24 0 28 -3 30 -36 30 -23 0 -33 4 -28 11 4 7 22 9 43 6 36 -4 37
-4 33 24 -4 29 -4 29 -78 29 -71 0 -74 -1 -64 -19z"/>
<path d="M3969 19611 c-50 -51 -36 -136 29 -167 77 -36 162 15 162 97 0 33 -6
47 -31 70 -26 24 -40 29 -81 29 -41 0 -54 -5 -79 -29z"/>
<path d="M4168 19628 c14 -14 17 -169 3 -183 -7 -6 6 -10 33 -10 l42 0 -4 55
-4 55 54 -52 c29 -29 57 -53 61 -53 4 0 7 40 7 90 0 74 3 91 18 99 13 8 4 10
-37 11 -43 0 -52 -3 -43 -12 7 -7 12 -26 12 -42 l0 -30 -43 42 c-33 33 -50 42
-77 42 -26 0 -31 -3 -22 -12z"/>
<path d="M5288 19628 c15 -15 16 -164 2 -173 -21 -13 -8 -20 35 -20 43 0 56 7
35 20 -12 7 -13 45 -2 45 5 0 22 -15 39 -33 27 -29 34 -32 76 -29 32 3 47 9
47 18 0 10 13 14 41 14 32 0 40 -3 35 -15 -4 -12 4 -15 41 -15 40 0 44 2 33
15 -7 9 -27 52 -45 98 -32 80 -34 82 -69 85 -27 2 -36 -1 -36 -12 0 -23 -51
-146 -60 -146 -4 0 -15 12 -25 26 -12 19 -14 29 -6 37 17 17 13 62 -7 80 -23
21 -154 25 -134 5z"/>
<path d="M5709 19625 c-54 -29 -63 -120 -16 -162 31 -29 60 -36 115 -28 l47 6
0 55 0 54 -44 0 c-35 0 -42 -3 -33 -12 19 -19 15 -58 -6 -58 -23 0 -52 30 -52
54 0 37 19 56 58 56 21 0 43 -5 50 -12 9 -9 12 -4 12 25 l0 37 -52 0 c-29 -1
-65 -7 -79 -15z"/>
<path d="M5923 19628 c-31 -15 -56 -73 -49 -112 13 -70 97 -105 166 -69 67 34
72 133 9 177 -26 18 -92 20 -126 4z"/>
<path d="M6108 19628 c15 -15 16 -164 2 -173 -21 -13 -8 -21 33 -19 54 3 53 2
39 16 -11 11 -18 88 -7 88 3 0 28 -22 57 -50 29 -27 56 -50 61 -50 4 0 6 36 3
79 -3 59 0 85 11 100 14 20 13 21 -39 21 -33 0 -48 -4 -40 -9 8 -4 12 -20 10
-35 l-3 -27 -40 35 c-27 24 -50 36 -69 36 -23 0 -27 -3 -18 -12z"/>
<path d="M4634 19529 c-13 -27 -17 -83 -9 -110 9 -28 68 -59 111 -59 65 0 125
58 88 85 -15 10 -21 9 -38 -6 -50 -47 -108 3 -73 63 16 28 16 29 -3 23 -13 -4
-20 -2 -20 6 0 8 -7 6 -19 -5 -19 -17 -20 -17 -23 5 l-3 22 -11 -24z"/>
<path d="M4787 19504 c9 -14 29 -39 45 -54 16 -16 28 -39 28 -54 0 -13 5 -28
10 -31 6 -3 10 2 10 12 0 15 2 14 16 -5 10 -14 26 -22 44 -22 28 0 54 19 28
21 -7 0 -3 5 10 11 27 13 39 53 22 73 -18 21 -39 19 -33 -4 3 -11 -2 -21 -11
-24 -12 -5 -16 0 -16 18 0 27 -9 32 -27 14 -7 -7 -19 -3 -41 15 -16 14 -34 26
-40 26 -5 0 -15 7 -22 15 -7 8 -19 15 -26 15 -12 0 -11 -5 3 -26z"/>
<path d="M1143 17215 l-103 -130 0 -73 0 -73 103 -129 102 -129 409 0 408 -1
20 25 19 25 1423 0 1422 0 62 63 63 64 0 158 0 158 -63 64 -62 63 -1426 0
c-1409 0 -1425 0 -1438 20 -11 19 -26 20 -424 22 l-412 3 -103 -130z m943 -12
c72 -87 88 -112 86 -137 -2 -16 -8 -36 -14 -43 -7 -9 -7 -17 -1 -25 31 -40 24
-59 -65 -170 l-87 -108 -350 0 -350 0 -87 108 c-89 111 -96 130 -65 170 6 8 6
16 0 25 -6 6 -13 25 -16 41 -4 25 7 43 85 137 l90 109 343 0 343 0 88 -107z
m2733 46 c17 -6 31 -14 31 -17 0 -9 -2688 -5 -2701 3 -5 4 -9 10 -9 16 0 14
2638 12 2679 -2z m124 -70 c46 -38 97 -123 97 -163 0 -46 -36 -109 -90 -160
l-49 -46 -1303 2 -1303 3 -32 24 c-38 29 -41 43 -13 78 31 40 29 155 -5 198
l-24 32 22 20 c12 11 31 25 42 31 14 8 389 11 1320 12 l1300 0 38 -31z m-113
-397 c-32 -16 -147 -17 -1368 -20 l-1332 -2 12 20 c13 20 21 20 1368 19 1273
-1 1353 -2 1320 -17z"/>
<path d="M6135 17253 c-60 -18 -162 -49 -225 -69 l-116 -36 -11 -60 c-16 -86
-57 -147 -116 -177 l-47 -23 0 -158 c0 -146 2 -165 26 -232 59 -164 151 -316
258 -426 84 -87 158 -138 259 -180 70 -30 75 -31 119 -17 225 67 442 305 551
603 25 69 27 83 27 246 l0 174 -24 6 c-61 15 -110 86 -136 193 l-12 53 -116
36 c-65 20 -164 50 -222 68 l-105 33 -110 -34z m421 -102 l101 -31 12 -54 c17
-78 67 -156 119 -184 l42 -23 0 -139 c0 -160 -14 -211 -102 -382 -109 -209
-256 -351 -433 -417 l-56 -21 -69 29 c-133 56 -261 167 -355 311 -54 84 -79
133 -121 241 -33 86 -34 92 -34 238 l0 149 24 6 c43 11 102 90 128 172 l23 75
110 34 c60 18 153 47 205 63 l94 29 106 -33 c58 -18 150 -46 206 -63z"/>
<path d="M6218 17199 c-2 -6 -73 -32 -158 -58 -85 -26 -162 -50 -171 -53 -9
-3 -24 -30 -33 -60 -32 -97 -92 -178 -133 -178 -27 0 -41 -26 -24 -43 7 -7 11
-53 11 -122 0 -127 11 -167 80 -305 94 -188 215 -317 369 -395 30 -15 61 -34
69 -42 13 -12 16 -12 31 1 9 8 49 32 90 53 149 76 289 241 383 451 42 95 43
99 46 222 2 69 8 130 13 136 15 18 -1 44 -26 44 -40 0 -99 81 -135 184 l-17
50 -167 51 c-91 29 -172 57 -178 63 -15 15 -45 15 -50 1z m223 -84 l156 -47
13 -42 c18 -60 60 -133 94 -165 51 -45 56 -62 56 -179 0 -122 -13 -165 -94
-317 -115 -216 -310 -387 -433 -380 -139 8 -350 226 -458 470 -39 88 -40 93
-43 222 l-4 132 46 45 c44 42 106 152 106 188 0 9 4 20 10 23 29 18 330 102
360 100 19 -1 105 -23 191 -50z"/>
<path d="M11572 17167 l-62 -63 0 -510 0 -510 63 -62 63 -62 549 0 550 0 63
64 62 64 0 504 0 504 -68 67 -68 67 -545 0 -545 0 -62 -63z m1052 17 c27 -10
68 -35 92 -59 l44 -42 0 -486 0 -487 -35 -39 c-20 -21 -56 -49 -80 -60 -43
-20 -59 -21 -462 -21 -464 0 -456 -1 -536 70 l-37 32 0 498 0 498 32 33 c18
18 55 43 83 55 50 24 52 24 451 24 345 0 407 -2 448 -16z m-1035 -596 l-1
-453 -21 45 c-21 44 -22 56 -22 415 0 333 2 374 18 408 9 20 19 37 22 37 3 0
5 -204 4 -452z m1214 405 c25 -69 26 -724 1 -796 -9 -26 -20 -47 -25 -47 -5 0
-9 186 -9 445 0 245 4 445 8 445 4 0 16 -21 25 -47z"/>
<path d="M13083 17164 l-63 -64 0 -508 0 -508 63 -62 63 -62 860 0 860 0 62
63 62 63 0 510 0 510 -63 62 -63 62 -859 -1 -860 -1 -62 -64z m1705 5 c110
-55 102 -7 102 -579 l0 -498 -37 -32 c-83 -74 -35 -70 -848 -70 -818 0 -767
-4 -847 74 l-38 36 0 490 0 489 30 35 c17 19 54 46 82 60 l52 26 721 0 722 0
61 -31z m-1689 -576 c0 -444 -1 -448 -19 -408 -17 36 -19 72 -19 401 -1 305 1
368 15 407 9 26 18 47 20 47 2 0 4 -201 3 -447z m1845 383 c24 -73 24 -692 0
-763 -9 -26 -20 -52 -25 -58 -5 -5 -9 173 -9 440 0 254 4 445 9 440 4 -6 16
-32 25 -59z"/>
<path d="M1123 16465 l-83 -104 0 -75 0 -74 85 -106 86 -106 1865 0 1866 0 64
65 64 65 0 158 0 158 -63 62 -63 62 -1869 -1 -1870 0 -82 -104z m982 -11 c71
-87 81 -117 53 -151 -7 -9 -7 -17 -1 -25 6 -7 13 -26 17 -41 6 -24 -3 -39 -64
-112 l-71 -85 -383 0 -384 0 -70 84 c-59 71 -69 88 -65 112 3 16 10 35 16 42
6 8 6 16 0 25 -30 37 -23 58 50 148 l72 89 380 0 380 0 70 -86z m2725 64 c33
-15 -47 -16 -1322 -17 -747 -1 -1358 1 -1358 3 0 2 -3 12 -6 20 -6 15 109 16
1322 14 1217 -3 1332 -4 1364 -20z m115 -70 c44 -38 95 -123 95 -158 -1 -42
-36 -107 -85 -155 l-47 -45 -1300 0 c-943 0 -1305 3 -1321 11 -12 6 -32 21
-44 32 l-22 20 24 32 c21 27 25 43 25 103 0 60 -4 75 -25 100 -27 32 -23 44
25 76 22 15 135 16 1332 16 l1307 0 36 -32z m-120 -393 c-25 -12 -254 -14
-1357 -15 -731 0 -1328 4 -1328 8 0 5 3 12 7 15 3 4 614 7 1357 6 1154 -1
1347 -3 1321 -14z"/>
<path d="M3849 15803 l-1235 -3 -12 -34 c-7 -19 -31 -53 -54 -75 l-40 -41
-165 0 -164 0 -60 65 -61 65 -407 0 -406 0 -58 -65 -59 -65 -57 0 -57 0 -67
-68 -67 -68 0 -555 0 -555 68 -67 68 -67 640 0 640 0 62 63 62 63 0 559 0 559
-47 48 -47 48 90 0 c95 0 103 3 174 63 19 17 63 43 97 59 l63 28 1178 0 c647
0 1183 0 1190 0 23 0 10 45 -13 45 -11 0 -576 -1 -1256 -2z m-1768 -100 c74
-80 72 -74 36 -113 -18 -19 -85 -97 -150 -172 l-118 -137 -187 -3 c-112 -2
-194 1 -204 7 -19 12 -298 331 -298 341 0 4 21 31 48 60 l47 52 395 1 396 1
35 -37z m-771 -308 l133 -155 211 1 211 1 131 151 130 152 73 3 74 3 43 -45
c74 -77 75 -90 72 -572 -3 -408 -4 -420 -25 -460 -12 -22 -36 -54 -54 -72
l-33 -32 -622 0 -622 0 -33 27 c-17 15 -42 50 -55 78 l-24 50 0 435 c0 487 -1
476 74 553 36 36 39 37 110 37 l74 0 132 -155z m880 -1068 c-44 -21 -57 -22
-510 -25 -410 -3 -472 -1 -528 14 -34 9 -65 20 -68 25 -3 5 239 9 573 8 l578
-1 -45 -21z"/>
<path d="M2697 15617 l-48 -50 48 -51 c26 -28 49 -52 49 -54 1 -2 26 21 55 50
l54 53 -52 53 c-29 28 -53 51 -55 51 -2 -1 -25 -24 -51 -52z"/>
<path d="M10570 15458 c-9 -20 -32 -41 -58 -54 l-43 -23 0 -2217 c0 -1219 2
-2218 3 -2219 2 -1 22 -12 45 -25 24 -13 49 -36 55 -52 l13 -28 2205 0 2206 0
10 29 c8 19 27 35 62 52 l51 24 1 2216 0 2217 -47 23 c-32 16 -53 35 -63 56
l-15 33 -2205 0 -2205 0 -15 -32z m4306 -17 c51 -23 107 -72 145 -127 l29 -43
0 -2109 0 -2109 -28 -39 c-39 -53 -107 -113 -148 -130 -28 -12 -348 -14 -2089
-14 -1886 0 -2059 1 -2088 16 -44 23 -82 56 -128 112 l-39 47 0 2116 0 2116
28 39 c38 52 97 103 146 125 39 18 119 19 2086 19 1967 0 2047 -1 2086 -19z
m204 -2276 c0 -1365 -3 -2066 -10 -2070 -7 -4 -10 688 -10 2070 0 1382 3 2074
10 2070 7 -4 10 -705 10 -2070z m-4560 -5 c0 -1191 -4 -2070 -9 -2070 -5 0
-11 10 -15 23 -8 29 -8 4065 0 4095 4 12 10 22 15 22 5 0 9 -879 9 -2070z"/>
<path d="M2695 15355 c-47 -46 -24 -125 42 -141 53 -14 113 46 99 99 -16 66
-95 89 -141 42z"/>
<path d="M5890 15261 c0 -22 -34 -52 -80 -71 l-30 -12 0 -590 0 -589 33 -14
c34 -14 70 -49 80 -77 6 -17 111 -18 2017 -18 1906 0 2011 1 2017 18 10 28 46
63 81 77 l32 14 0 589 0 590 -30 12 c-46 19 -80 49 -80 71 0 19 -32 19 -2020
19 -1988 0 -2020 0 -2020 -19z m3915 -24 c45 -20 103 -72 146 -131 l29 -39 0
-481 0 -482 -48 -59 c-26 -33 -69 -73 -96 -90 l-49 -30 -1867 -3 -1867 -2 -54
28 c-33 17 -73 51 -106 90 l-53 62 0 483 c0 541 -7 490 79 580 48 51 86 76
136 88 17 4 858 6 1870 6 1748 -2 1842 -3 1880 -20z m-3975 -649 c0 -362 -3
-450 -12 -440 -18 18 -24 823 -7 864 6 15 13 28 15 28 2 0 4 -203 4 -452z
m4188 -13 c-2 -315 -6 -417 -15 -427 -10 -10 -13 79 -13 442 1 409 2 452 16
428 12 -24 14 -90 12 -443z"/>
<path d="M3853 14040 l-1232 -5 -33 -55 c-18 -30 -48 -65 -67 -77 -32 -21 -44
-23 -187 -23 l-153 0 -57 65 -58 65 -411 0 -411 0 -64 -65 c-64 -64 -65 -65
-119 -65 -55 0 -55 0 -118 -67 l-63 -68 0 -555 0 -555 63 -62 63 -63 643 -1
644 -1 63 63 64 63 0 560 0 560 -47 48 -47 48 95 0 96 0 45 40 c25 22 79 56
119 75 l74 35 1185 0 1185 -1 0 23 c0 16 -6 23 -20 23 -11 0 -575 -2 -1252 -5z
m-1757 -118 l52 -58 -90 -105 c-49 -57 -119 -137 -155 -176 l-64 -73 -189 0
-188 0 -149 171 c-81 94 -150 175 -152 181 -2 5 21 34 50 64 l53 54 391 0 390
0 51 -58z m-783 -293 l128 -149 212 0 212 1 129 149 129 150 78 0 c76 0 79 -1
113 -36 73 -75 71 -58 71 -549 l0 -440 -31 -55 c-56 -98 7 -90 -703 -90 l-624
-1 -34 33 c-18 18 -42 51 -53 73 -19 39 -20 63 -20 477 0 483 -1 473 66 548
l36 40 82 -1 81 0 128 -150z m912 -1049 c-3 -5 -29 -16 -57 -25 -79 -23 -962
-22 -1034 1 -27 9 -53 21 -58 25 -6 5 243 9 573 9 375 0 580 -3 576 -10z"/>
<path d="M2702 13855 l-51 -52 51 -53 50 -52 51 54 52 53 -51 51 -52 51 -50
-52z"/>
<path d="M5847 13742 l-67 -68 0 -510 0 -510 63 -62 63 -62 895 0 895 0 62 63
62 63 0 510 0 510 -68 67 -68 67 -885 0 -885 0 -67 -68z m1757 14 c19 -8 52
-31 75 -51 l41 -37 0 -498 0 -498 -41 -37 c-76 -69 -28 -65 -884 -65 -859 0
-796 -5 -876 67 l-39 35 0 497 0 497 33 32 c18 17 50 40 72 51 39 20 63 20
813 21 641 0 778 -2 806 -14z m-1745 -588 l-1 -453 -21 45 c-21 43 -22 60 -25
396 -3 337 -2 353 18 407 12 32 23 57 26 57 2 0 4 -204 3 -452z m1929 23 c3
-328 2 -347 -18 -407 -12 -35 -24 -64 -26 -64 -2 0 -4 204 -3 453 l0 452 22
-45 c21 -43 22 -59 25 -389z"/>
<path d="M8045 13744 l-65 -66 0 -512 0 -512 63 -62 63 -62 895 0 895 0 62 65
62 64 0 508 0 509 -68 67 -68 67 -887 0 -887 0 -65 -66z m1774 1 c27 -13 60
-38 75 -55 l26 -32 0 -492 0 -492 -32 -31 c-18 -17 -51 -40 -73 -52 -39 -21
-47 -21 -818 -21 -864 0 -803 -5 -879 68 l-38 36 0 497 0 497 41 37 c75 68 26
64 877 65 l773 0 48 -25z m-1759 -577 l-1 -453 -22 40 c-21 39 -22 51 -25 396
-3 342 -2 358 18 412 12 32 23 57 26 57 2 0 4 -204 4 -452z m1921 312 c5 -41
9 -199 8 -350 -1 -269 -9 -347 -39 -398 -6 -11 -9 141 -9 438 1 419 2 452 16
420 9 -19 19 -69 24 -110z"/>
<path d="M9015 13610 c-87 -35 -96 -165 -16 -213 55 -32 134 -13 162 40 10 19
20 23 62 23 45 0 53 -4 81 -36 23 -27 41 -37 72 -41 49 -6 100 16 116 52 10
22 18 25 64 25 44 0 55 -4 64 -21 16 -29 70 -59 106 -59 79 0 141 91 110 164
-17 40 -68 76 -109 76 -54 0 -117 -51 -117 -95 0 -11 -12 -15 -48 -15 -46 0
-49 2 -61 36 -15 41 -62 74 -106 74 -43 0 -94 -35 -111 -75 -13 -32 -18 -35
-57 -35 -39 0 -43 3 -59 38 -28 60 -94 87 -153 62z m118 -50 c17 -19 27 -42
27 -60 0 -41 -45 -89 -91 -96 -31 -5 -42 -1 -70 24 -28 25 -34 37 -34 70 0 94
104 132 168 62z m306 26 c49 -26 67 -101 33 -142 -55 -69 -145 -52 -172 31
-10 30 -9 40 7 68 32 53 80 69 132 43z m331 -1 c36 -19 50 -43 50 -87 0 -42
-20 -72 -59 -88 -113 -46 -184 119 -76 178 28 16 51 15 85 -3z"/>
<path d="M8998 13212 c-60 -37 -74 -128 -26 -179 52 -55 132 -52 183 8 20 25
31 29 73 29 42 0 52 -4 67 -26 22 -34 79 -57 121 -49 19 3 45 19 63 40 28 32
35 35 84 35 48 0 55 -3 65 -26 7 -14 29 -32 49 -40 95 -40 189 41 162 139 -14
50 -50 79 -106 84 -57 6 -97 -19 -119 -74 -13 -29 -18 -33 -54 -33 -35 0 -41
4 -56 35 -48 101 -178 100 -220 -2 -13 -30 -18 -33 -57 -33 -40 0 -44 2 -56
36 -24 65 -112 94 -173 56z m111 -17 c57 -29 65 -115 14 -155 -37 -29 -66 -34
-100 -16 -40 20 -53 38 -60 80 -5 31 -1 40 30 71 39 39 70 44 116 20z m330 1
c53 -28 66 -97 26 -144 -32 -38 -65 -46 -110 -28 -67 28 -79 114 -23 161 33
28 66 32 107 11z m359 -21 c24 -28 29 -82 11 -117 -17 -32 -74 -51 -114 -38
-81 27 -88 148 -11 181 35 14 89 2 114 -26z"/>
<path d="M2696 13595 c-55 -51 -19 -145 58 -145 26 0 40 7 60 31 34 40 33 74
-3 110 -37 37 -78 38 -115 4z"/>
<path d="M2695 13345 c-34 -33 -34 -83 0 -115 79 -74 194 35 120 114 -32 35
-86 36 -120 1z"/>
<path d="M2715 13118 c-31 -18 -44 -40 -45 -76 0 -74 90 -109 144 -56 35 36
34 77 -3 115 -31 30 -63 36 -96 17z"/>
<path d="M5080 12280 c-9 -6 -467 -10 -1240 -10 l-1225 0 -19 -41 c-11 -22
-37 -56 -58 -75 l-38 -34 -158 0 -158 0 -64 65 -64 65 -407 0 -406 0 -62 -65
c-61 -64 -64 -65 -115 -65 -50 0 -53 -1 -119 -68 l-67 -68 0 -555 0 -555 68
-67 68 -67 635 0 635 0 67 68 67 68 0 558 0 559 -45 43 -45 44 81 0 c87 0 105
6 160 55 20 18 68 48 105 66 l69 34 1158 3 c737 1 1164 -1 1176 -7 27 -15 60
11 45 35 -13 23 -25 26 -44 14z m-2992 -113 c28 -28 52 -57 52 -65 0 -7 -66
-89 -147 -182 l-148 -170 -192 0 -192 0 -151 172 c-82 95 -150 175 -150 179 0
3 23 32 51 63 l52 56 386 0 386 -1 53 -52z m-776 -302 l133 -155 207 0 206 0
134 155 133 155 76 0 c71 0 77 -2 108 -32 18 -18 42 -50 54 -72 22 -40 22 -49
22 -486 l0 -445 -27 -46 c-15 -26 -42 -59 -59 -73 l-31 -26 -618 0 -619 0 -37
36 c-75 75 -74 66 -74 557 l0 438 25 48 c13 27 38 60 55 75 28 23 40 26 105
26 l73 0 134 -155z m874 -1066 c-46 -19 -70 -19 -545 -17 -439 3 -500 5 -531
20 -33 15 -4 16 545 17 l580 0 -49 -20z"/>
<path d="M5699 12197 c-9 -21 -30 -40 -61 -57 l-48 -25 0 -585 0 -585 43 -20
c23 -12 51 -35 62 -53 l20 -31 2208 -1 c2173 0 2207 0 2207 19 0 22 34 52 80
71 l30 12 0 588 0 588 -46 23 c-33 15 -50 32 -60 55 l-14 33 -2203 1 -2203 0
-15 -33z m4309 -23 c40 -16 86 -56 133 -116 l30 -37 0 -486 c0 -552 6 -509
-87 -595 -83 -76 114 -70 -2169 -70 -2019 0 -2056 0 -2094 20 -53 27 -96 65
-131 115 l-30 44 0 485 0 485 43 53 c23 29 64 68 91 86 l48 32 2064 0 c1843 0
2069 -2 2102 -16z m-4368 -646 c0 -290 -4 -438 -10 -428 -6 9 -10 178 -10 427
0 369 3 443 16 443 2 0 4 -199 4 -442z m4570 2 c0 -275 -4 -431 -10 -435 -7
-4 -10 143 -10 435 0 292 3 439 10 435 6 -4 10 -160 10 -435z"/>
<path d="M5944 12092 c-7 -10 -44 -58 -83 -106 l-71 -88 0 -227 0 -226 86
-107 87 -108 436 0 436 1 88 111 87 111 0 218 0 219 -87 110 -87 110 -441 0
c-413 0 -441 -1 -451 -18z m905 -113 l80 -100 0 -208 0 -209 -77 -96 -77 -96
-376 0 -376 0 -81 98 -82 97 0 91 c0 57 4 94 12 102 9 9 9 15 0 24 -8 8 -12
45 -12 101 l0 90 77 96 c42 53 82 99 87 103 6 4 176 8 378 8 l366 0 81 -101z"/>
<path d="M7386 12001 l-86 -110 0 -225 c0 -137 4 -227 10 -231 5 -3 44 -51 86
-106 l77 -99 437 0 437 0 86 110 87 110 0 223 c0 199 -2 226 -17 244 -10 11
-48 59 -86 107 l-67 86 -439 0 -439 0 -86 -109z m981 -29 l83 -103 0 -87 c0
-55 -4 -92 -12 -100 -9 -9 -9 -15 0 -24 7 -7 12 -45 12 -99 l0 -87 -82 -101
-81 -101 -377 0 -377 0 -76 96 -77 96 0 187 c-1 102 -1 196 -1 209 1 13 36 66
82 122 l81 100 371 -2 371 -3 83 -103z"/>
<path d="M8888 12001 l-88 -110 0 -220 0 -221 88 -110 87 -109 437 -1 436 0
86 108 86 107 0 226 0 227 -85 106 -86 106 -437 0 -437 0 -87 -109z m897 71
c6 -4 45 -50 88 -103 l77 -97 0 -89 c0 -56 -4 -93 -12 -101 -9 -9 -9 -15 0
-24 8 -8 12 -45 12 -101 l0 -88 -80 -100 -81 -99 -377 0 -377 0 -77 96 -77 96
0 211 0 210 81 98 80 99 367 0 c201 0 371 -4 376 -8z"/>
<path d="M2698 12090 l-46 -50 50 -53 51 -53 50 53 51 54 -49 49 c-27 28 -52
50 -55 49 -3 0 -26 -22 -52 -49z"/>
<path d="M5696 10615 c-4 -17 -24 -35 -61 -56 l-55 -31 0 -2624 c0 -2811 2
-2669 -46 -2688 -15 -6 -16 -17 -11 -82 4 -41 18 -108 32 -148 17 -50 25 -94
25 -142 l0 -69 48 -25 c30 -16 52 -37 62 -57 l15 -33 2205 0 2205 0 15 33 c10
20 32 41 62 57 l47 24 4 86 c2 52 12 107 25 143 12 32 24 91 28 132 6 64 4 75
-10 81 -48 19 -46 -122 -46 2688 l0 2624 -55 31 c-37 21 -57 39 -61 56 l-6 25
-2208 0 -2208 0 -6 -25z m4298 -19 c41 -17 109 -77 148 -130 l28 -39 2 -866 3
-866 5 850 c4 687 7 846 18 828 9 -17 12 -555 11 -2605 -1 -2262 -4 -2701 -20
-2678 -2 3 -6 779 -9 1725 l-5 1720 -3 -1676 c-2 -1426 0 -1692 13 -1787 8
-61 17 -122 20 -135 11 -42 -86 -157 -187 -220 -25 -16 -166 -17 -2108 -17
-1942 0 -2083 1 -2108 17 -63 39 -108 81 -149 137 -38 51 -44 65 -38 91 34
161 34 163 35 2850 0 2427 1 2632 16 2655 30 45 88 102 133 131 l45 29 2058 0
c1744 0 2064 -2 2092 -14z m-4360 -5406 c-7 -93 -9 -100 -15 -60 -4 25 -8
1210 -8 2633 -1 2053 2 2593 12 2610 10 18 13 -482 15 -2528 2 -1402 0 -2597
-4 -2655z"/>
<path d="M10580 10621 c0 -23 -51 -68 -86 -77 l-24 -6 -3 -4622 c-2 -4320 -4
-4625 -20 -4689 -23 -93 -48 -302 -41 -347 5 -28 12 -39 35 -47 25 -10 29 -16
29 -52 0 -39 2 -42 49 -65 35 -18 52 -34 59 -56 l11 -30 2206 0 2205 0 10 24
c10 28 54 64 87 72 20 5 23 12 23 51 0 41 3 46 30 56 30 11 30 12 30 89 0 83
-20 234 -45 339 -13 56 -15 607 -15 4671 l0 4607 -22 6 c-38 12 -88 55 -88 76
0 19 -26 19 -2215 19 -2174 0 -2215 0 -2215 -19z m4325 -40 c54 -31 89 -65
128 -124 l26 -38 0 -4642 c0 -4110 2 -4655 16 -4757 23 -179 23 -181 -30 -209
-54 -28 -123 -96 -131 -128 l-6 -23 -2113 0 -2113 0 -12 30 c-15 37 -87 104
-136 128 l-37 17 7 75 c4 41 12 102 18 135 8 43 12 1405 15 4715 2 2560 3
4660 3 4667 0 27 100 131 151 157 l53 26 2055 0 2056 0 50 -29z m-4394 -9490
c-5 -27 -9 1862 -10 4611 0 2561 2 4665 7 4675 10 26 14 -9230 3 -9286z m4577
4609 c0 -2566 -4 -4638 -8 -4605 -12 93 -12 9303 0 9285 6 -10 9 -1683 8
-4680z"/>
<path d="M5079 10519 c-8 -5 -515 -9 -1236 -9 l-1223 0 -20 -39 c-11 -22 -36
-56 -56 -75 l-37 -36 -164 0 -164 0 -60 65 -61 65 -408 0 -408 0 -57 -65 -57
-65 -57 0 -57 0 -67 -68 -67 -68 0 -555 0 -555 68 -67 68 -67 640 0 640 0 62
63 62 63 0 561 0 562 -48 45 -47 46 92 0 92 0 57 46 c31 25 86 60 123 78 l66
31 1154 3 c773 1 1158 -1 1165 -8 23 -23 56 -5 56 30 0 16 -35 29 -51 19z
m-2981 -125 l51 -56 -97 -112 c-53 -61 -121 -139 -151 -173 l-55 -63 -195 0
-196 0 -135 157 c-184 213 -171 184 -113 247 l48 54 396 1 397 1 50 -56z
m-789 -289 l133 -155 208 0 208 0 134 153 134 152 73 3 74 3 43 -45 c74 -77
75 -90 72 -572 -3 -467 0 -448 -76 -526 l-36 -38 -622 0 c-616 0 -622 0 -648
21 -15 12 -40 44 -56 73 l-30 51 0 440 c0 494 -1 486 75 559 35 35 40 36 109
36 l72 0 133 -155z m881 -1068 c-44 -21 -57 -22 -514 -25 -451 -3 -472 -2
-538 18 -37 11 -68 23 -68 25 0 3 262 5 583 4 l582 -1 -45 -21z"/>
<path d="M2702 10327 l-51 -52 50 -52 50 -52 52 52 52 53 -51 52 -50 51 -52
-52z"/>
<path d="M2695 10065 c-37 -36 -34 -86 6 -119 40 -34 74 -33 110 3 37 38 38
79 3 115 -35 35 -86 35 -119 1z"/>
<path d="M2715 9838 c-51 -29 -61 -93 -20 -133 55 -56 153 -10 141 65 -10 62
-71 97 -121 68z"/>
<path d="M2695 9575 c-47 -46 -24 -125 42 -141 53 -14 113 46 99 99 -16 66
-95 89 -141 42z"/>
<path d="M2730 9353 c-75 -28 -81 -121 -11 -158 53 -27 121 17 121 79 0 48
-66 96 -110 79z"/>
<path d="M2695 9085 c-52 -51 -15 -145 57 -145 38 0 88 48 88 85 0 16 -12 38
-29 56 -38 37 -82 39 -116 4z"/>
<path d="M3853 8753 l-1231 -3 -31 -54 c-51 -92 -63 -96 -251 -98 l-161 -1
-62 67 -62 66 -400 0 -401 0 -64 -65 c-64 -64 -65 -65 -119 -65 -54 0 -55 0
-123 -70 l-68 -69 0 -556 0 -556 62 -65 62 -64 646 0 646 0 62 63 62 63 0 559
0 559 -47 48 -47 48 87 0 c93 0 126 10 162 50 11 13 56 40 100 62 l80 38 1185
0 1185 -1 0 23 c0 16 -6 23 -20 23 -11 0 -574 -1 -1252 -2z m-1758 -120 l53
-58 -29 -35 c-15 -19 -84 -98 -151 -175 l-124 -140 -191 -3 -191 -2 -151 175
c-83 96 -151 178 -151 182 0 4 23 31 52 60 l52 53 389 0 390 0 52 -57z m-850
-215 c33 -39 91 -107 128 -150 l69 -78 213 0 c200 0 215 1 227 19 8 11 65 79
127 150 l114 131 80 0 c78 0 80 -1 112 -34 72 -77 70 -61 70 -551 l0 -440 -29
-53 c-56 -100 4 -92 -709 -92 l-625 0 -36 40 c-67 75 -66 65 -66 547 0 479 -1
468 65 542 l37 41 82 0 81 0 60 -72z m955 -1141 c-44 -22 -52 -22 -545 -22
-492 0 -501 0 -545 22 l-45 21 590 0 590 1 -45 -22z"/>
<path d="M2700 8565 l-51 -51 52 -52 52 -53 51 53 51 53 -52 51 -51 51 -52
-52z"/>
<path d="M2696 8304 c-53 -53 -18 -144 54 -144 40 0 90 47 90 85 0 16 -12 38
-29 56 -38 37 -79 38 -115 3z"/>
<path d="M2724 8080 c-54 -21 -72 -100 -31 -138 34 -31 67 -35 104 -13 35 22
49 56 39 96 -10 40 -72 71 -112 55z"/>
<path d="M2696 7814 c-53 -54 -18 -144 56 -144 37 1 59 14 76 47 19 35 14 63
-17 94 -38 37 -79 38 -115 3z"/>
<path d="M2691 7564 c-31 -40 -28 -87 10 -118 17 -14 42 -26 56 -26 35 0 83
51 83 88 0 72 -105 112 -149 56z"/>
<path d="M2715 7338 c-76 -44 -49 -159 37 -158 37 1 59 14 76 47 19 35 14 63
-17 94 -31 30 -63 36 -96 17z"/>
<path d="M5075 6991 c-4 -8 -383 -11 -1235 -11 l-1228 0 -6 -25 c-4 -14 -28
-48 -54 -75 l-48 -50 -161 0 -160 0 -62 65 -63 65 -407 0 -407 0 -64 -65 c-62
-63 -66 -65 -115 -65 -48 0 -52 -3 -117 -66 l-68 -66 0 -557 0 -557 68 -67 68
-67 635 0 635 0 67 68 67 68 0 560 0 560 -40 39 c-22 21 -40 42 -40 45 0 3 35
7 78 7 42 1 82 2 89 2 6 1 32 19 57 40 25 22 76 54 113 73 l68 33 1164 3 c761
1 1168 -1 1176 -8 8 -6 18 -5 31 5 15 11 17 17 8 32 -13 21 -39 29 -49 14z
m-2982 -119 l58 -58 -122 -140 c-67 -76 -135 -156 -152 -176 l-30 -38 -196 1
-196 0 -145 170 c-80 93 -146 175 -148 182 -1 8 22 37 52 65 l55 52 383 0 384
0 57 -58z m-781 -297 l133 -154 206 -1 205 0 135 155 134 155 75 0 c75 0 77
-1 112 -37 76 -80 73 -56 73 -553 l0 -445 -27 -46 c-15 -26 -42 -59 -59 -73
l-31 -26 -617 0 -617 0 -38 36 c-77 72 -76 65 -76 557 0 424 1 439 21 482 12
25 37 58 55 75 32 28 41 30 108 30 l74 0 134 -155z m918 -1043 c0 -5 -23 -16
-51 -25 -45 -15 -112 -17 -528 -17 -411 0 -484 2 -524 16 -26 9 -47 20 -47 25
0 5 238 9 575 9 316 0 575 -4 575 -8z"/>
<path d="M2699 6800 l-46 -49 49 -52 49 -53 52 52 52 52 -50 50 c-27 27 -52
50 -55 49 -3 0 -26 -22 -51 -49z"/>
<path d="M2715 6558 c-78 -45 -49 -158 40 -158 79 0 112 84 56 141 -31 30 -63
36 -96 17z"/>
<path d="M2695 6295 c-41 -40 -33 -105 16 -130 42 -22 67 -18 100 14 36 36 37
70 3 110 -33 40 -83 43 -119 6z"/>
<path d="M2730 6073 c-36 -13 -60 -47 -60 -83 0 -63 64 -101 121 -72 60 31 64
107 6 142 -33 21 -42 22 -67 13z"/>
<path d="M2696 5804 c-69 -70 7 -174 97 -133 52 24 60 87 18 130 -38 37 -79
38 -115 3z"/>
<path d="M1123 5165 l-83 -104 0 -73 0 -73 85 -107 85 -108 1865 0 1866 0 64
64 65 65 0 158 0 159 -63 62 -63 62 -1869 -1 -1870 0 -82 -104z m982 -11 c71
-87 82 -117 53 -151 -7 -9 -7 -17 -1 -25 6 -7 13 -25 17 -39 5 -22 -5 -41 -62
-112 l-67 -86 -387 -1 -386 0 -52 63 c-28 34 -60 72 -71 85 -17 20 -18 25 -4
64 8 25 10 46 5 53 -26 32 -15 63 55 149 l70 86 380 0 380 0 70 -86z m2725 64
c33 -15 -47 -16 -1320 -17 -1347 -1 -1355 -1 -1368 19 l-12 20 1332 -2 c1221
-3 1336 -4 1368 -20z m113 -68 c44 -37 97 -124 97 -160 -1 -42 -36 -107 -85
-155 l-47 -45 -1308 0 -1308 0 -31 26 c-36 30 -38 40 -11 74 28 36 28 157 0
193 -11 14 -20 32 -20 40 0 13 37 44 67 57 7 3 596 4 1310 3 l1298 -2 38 -31z
m-120 -396 c-27 -12 -239 -14 -1355 -14 -728 0 -1327 0 -1332 0 -5 0 -3 7 4
15 11 13 174 15 1364 14 1172 -1 1347 -2 1319 -15z"/>
<path d="M5642 4347 l-62 -63 -1 -114 0 -115 -59 -49 c-57 -47 -59 -50 -58
-95 0 -42 5 -50 52 -93 28 -27 54 -48 59 -48 4 0 7 -87 7 -192 l0 -193 -60
-49 c-58 -48 -60 -51 -60 -97 0 -45 3 -49 60 -99 l60 -52 0 -194 c0 -107 -3
-194 -7 -194 -5 0 -32 -22 -60 -49 -48 -44 -53 -53 -53 -92 0 -38 5 -47 53
-90 28 -27 55 -49 60 -49 4 0 7 -87 6 -192 l0 -193 -60 -49 c-57 -47 -59 -51
-59 -97 0 -45 2 -49 60 -99 l60 -52 0 -483 0 -484 63 -65 62 -66 2205 0 2206
0 62 63 62 63 0 1760 0 1760 -63 62 -63 62 -2205 0 -2205 0 -62 -63z m4399 6
c27 -14 60 -41 74 -59 l25 -33 0 -1738 0 -1739 -37 -36 c-21 -20 -58 -46 -83
-57 -45 -20 -55 -21 -2110 -21 -2055 0 -2065 1 -2110 21 -25 11 -62 36 -82 56
l-37 36 0 459 0 458 78 0 78 0 39 -50 39 -49 391 -1 391 0 86 109 87 109 0 70
0 69 -87 111 -88 111 -387 1 -386 0 -42 -50 -42 -50 -79 0 -79 0 0 145 0 145
79 0 80 0 38 -50 38 -49 390 -1 391 0 87 110 87 110 0 70 0 69 -87 110 -88
110 -387 1 -387 0 -42 -50 -42 -50 -79 0 -79 0 3 148 3 147 77 3 77 3 38 -51
37 -50 391 0 390 0 88 109 87 110 0 70 0 69 -88 109 -88 108 -386 3 -386 2
-42 -50 -42 -50 -79 0 -79 0 0 145 0 145 79 0 80 0 38 -50 38 -49 391 -1 392
0 43 58 c23 31 62 80 86 108 42 50 43 53 43 122 l0 71 -87 110 -88 111 -387 0
-387 0 -42 -50 -42 -50 -79 0 -78 0 0 83 c0 83 0 84 38 122 20 21 55 46 77 56
38 18 119 19 2119 19 l2078 0 49 -27z m153 -212 c8 -33 10 -481 6 -1646 -5
-1467 -6 -1603 -22 -1635 -15 -33 -16 70 -17 1665 0 1238 3 1695 11 1681 6
-10 16 -40 22 -65z m-3533 -2 c12 -18 58 -74 101 -126 43 -52 78 -99 78 -104
0 -6 -46 -66 -102 -135 l-102 -124 -326 0 -327 0 -107 130 -107 130 108 130
107 130 327 0 328 0 22 -31z m-851 -66 c0 -5 -16 -28 -35 -52 -32 -40 -35 -49
-35 -111 0 -62 3 -71 35 -111 19 -24 35 -47 35 -51 0 -5 -29 -8 -65 -8 -60 0
-66 2 -77 25 -11 26 -41 39 -71 33 -9 -2 -37 13 -61 32 -41 31 -45 39 -46 77
0 37 5 46 42 77 28 24 52 36 72 36 37 0 49 7 65 38 10 19 19 22 76 22 36 0 65
-3 65 -7z m883 -651 c94 -114 93 -112 72 -156 -12 -24 -14 -40 -8 -44 5 -4 13
-19 16 -34 6 -22 -4 -40 -66 -116 l-72 -91 -327 0 -326 -1 -68 83 c-37 45 -71
87 -77 94 -6 8 -3 24 7 44 18 36 21 59 7 59 -5 0 -11 12 -14 27 -4 23 8 43 72
120 l76 93 322 0 321 0 65 -78z m-883 -26 c0 -2 -16 -23 -35 -47 -32 -40 -35
-50 -35 -110 0 -61 3 -70 35 -110 19 -24 35 -47 35 -51 0 -5 -29 -8 -65 -8
-60 0 -66 2 -77 25 -11 26 -41 39 -71 33 -9 -2 -37 13 -61 32 -41 31 -45 39
-46 77 0 36 5 46 41 77 30 25 53 36 83 38 31 2 43 8 51 26 9 20 17 22 77 22
38 0 68 -2 68 -4z m784 -605 c22 -23 35 -29 56 -25 24 5 33 -2 78 -59 29 -36
52 -71 52 -80 0 -8 -9 -26 -21 -41 -19 -24 -20 -29 -6 -44 34 -39 30 -58 -24
-127 -46 -59 -55 -66 -79 -61 -21 4 -34 -2 -56 -25 l-28 -29 -261 0 -261 0
-28 29 c-22 23 -35 29 -55 25 -23 -4 -33 4 -79 62 -54 69 -58 89 -26 122 17
17 18 27 1 44 -32 32 -28 49 25 120 48 62 56 69 81 64 22 -4 33 1 54 24 l26
30 262 0 261 0 28 -29z m-786 -70 c2 0 -12 -23 -32 -50 -33 -45 -36 -54 -36
-120 0 -39 3 -71 8 -71 7 0 49 -57 54 -75 2 -6 -23 -10 -61 -11 -57 0 -64 2
-74 23 -11 24 -47 39 -71 30 -8 -3 -34 12 -60 34 -40 35 -46 46 -46 79 0 33 6
44 42 74 28 24 52 36 72 36 36 0 49 7 64 36 10 19 19 21 74 19 35 -1 65 -3 66
-4z m559 -593 c22 -21 25 -21 120 -8 117 15 171 4 214 -41 40 -43 49 -81 46
-206 -2 -106 -3 -113 -32 -154 -48 -68 -113 -80 -281 -53 -35 5 -45 3 -63 -15
-29 -29 -103 -29 -132 0 -18 18 -27 20 -72 12 -78 -12 -178 -10 -214 5 -17 8
-44 33 -59 55 -26 39 -28 50 -31 156 -2 95 1 120 17 151 43 84 118 113 235 91
87 -15 109 -14 130 9 25 28 91 27 122 -2z m-557 -82 c0 -2 -16 -23 -35 -47
-32 -40 -35 -50 -35 -110 0 -60 3 -70 35 -112 19 -25 35 -48 35 -51 0 -3 -28
-6 -63 -6 -59 0 -65 2 -86 31 -18 24 -29 30 -52 27 -21 -2 -41 7 -74 32 -40
31 -44 39 -45 77 0 36 5 46 41 77 30 25 53 36 83 38 31 2 43 8 51 26 9 20 17
22 77 22 38 0 68 -2 68 -4z m-161 -328 c11 -30 18 -874 8 -885 -3 -2 -12 17
-21 43 -14 41 -16 107 -16 461 0 239 4 413 9 413 5 0 14 -14 20 -32z"/>
<path d="M770 4366 c0 -23 -4 -26 -35 -26 -37 0 -44 -12 -20 -36 13 -14 15
-225 15 -1778 0 -1555 -2 -1765 -15 -1776 -24 -20 -17 -30 20 -30 34 0 35 -1
35 -40 0 -43 19 -61 44 -41 16 13 4394 10 4439 -3 27 -8 27 -8 27 38 0 46 0
46 35 46 37 0 44 10 20 30 -13 11 -15 221 -15 1776 0 1553 2 1764 15 1778 24
24 17 36 -20 36 -31 0 -35 3 -35 26 0 25 -2 26 -32 18 -19 -5 -1003 -9 -2223
-9 -1220 0 -2204 4 -2222 9 -31 8 -33 7 -33 -18z m4477 -1853 l-2 -1838 -2222
-3 -2223 -2 0 1840 0 1840 2224 0 2225 0 -2 -1837z m-4477 7 c0 -1147 -3
-1730 -10 -1730 -11 0 -15 3442 -3 3453 3 4 8 7 10 7 2 0 3 -778 3 -1730z
m4530 0 c0 -1147 -3 -1730 -10 -1730 -7 0 -10 583 -10 1730 0 1147 3 1730 10
1730 7 0 10 -583 10 -1730z"/>
</g>
</svg>
